<svg width="296" height="296" viewBox="0 0 296 296" fill="none" xmlns="http://www.w3.org/2000/svg">
<path d="M148.001 295C229.186 295 295 229.186 295 148.001C295 66.8154 229.186 1.00146 148.001 1.00146C66.8149 1.00146 1.00098 66.8154 1.00098 148.001C1.00098 229.186 66.8149 295 148.001 295Z" stroke="#373737" stroke-width="2" stroke-miterlimit="10" stroke-linecap="round" stroke-linejoin="round"/>
<path d="M148 294.999C177.434 294.999 203.991 278.429 223.151 251.821C242.312 225.212 254.132 188.502 254.132 147.999C254.132 107.497 242.312 70.787 223.151 44.1779C203.991 17.5703 177.434 1 148 1C118.565 1 92.0083 17.5703 72.8485 44.1779C53.6876 70.787 41.8674 107.497 41.8674 147.999C41.8674 188.502 53.6876 225.212 72.8485 251.821C92.0083 278.429 118.565 294.999 148 294.999Z" stroke="#373737" stroke-width="2" stroke-miterlimit="10" stroke-linecap="round" stroke-linejoin="round"/>
<path d="M148 294.999C156.73 294.999 164.955 290.739 172.339 283.227C179.72 275.717 186.321 264.903 191.843 251.621C202.889 225.051 209.697 188.415 209.697 147.999C209.697 107.584 202.889 70.9479 191.843 44.3784C186.321 31.0958 179.72 20.2815 172.339 12.7724C164.955 5.25983 156.73 1 148 1C139.27 1 131.045 5.25983 123.661 12.7724C116.28 20.2815 109.679 31.0958 104.157 44.3784C93.1113 70.9479 86.3027 107.584 86.3027 147.999C86.3027 188.415 93.1113 225.051 104.157 251.621C109.679 264.903 116.28 275.717 123.661 283.227C131.045 290.739 139.27 294.999 148 294.999Z" stroke="#373737" stroke-width="2" stroke-miterlimit="10" stroke-linecap="round" stroke-linejoin="round"/>
<path d="M148 254.132C188.502 254.132 225.212 242.312 251.821 223.151C278.429 203.991 294.999 177.434 294.999 148C294.999 118.565 278.429 92.0084 251.821 72.8487C225.212 53.6879 188.502 41.8677 148 41.8677C107.497 41.8677 70.787 53.6879 44.1779 72.8487C17.5703 92.0084 1 118.565 1 148C1 177.434 17.5703 203.991 44.1779 223.151C70.787 242.312 107.497 254.132 148 254.132Z" stroke="#373737" stroke-width="2" stroke-miterlimit="10" stroke-linecap="round" stroke-linejoin="round"/>
<path d="M148 209.695C188.415 209.695 225.051 202.887 251.621 191.841C264.903 186.319 275.718 179.718 283.227 172.338C290.739 164.953 294.999 156.728 294.999 147.998C294.999 139.269 290.739 131.043 283.227 123.659C275.718 116.278 264.903 109.678 251.621 104.156C225.051 93.1098 188.415 86.3013 148 86.3013C107.584 86.3013 70.9479 93.1098 44.3784 104.156C31.0959 109.678 20.2815 116.278 12.7724 123.659C5.25984 131.043 1 139.269 1 147.998C1 156.728 5.25984 164.953 12.7724 172.338C20.2815 179.718 31.0959 186.319 44.3784 191.841C70.9479 202.887 107.584 209.695 148 209.695Z" stroke="#373737" stroke-width="2" stroke-miterlimit="10" stroke-linecap="round" stroke-linejoin="round"/>
<path d="M148 195.644C174.314 195.644 195.645 174.313 195.645 147.999C195.645 121.685 174.314 100.354 148 100.354C121.686 100.354 100.354 121.685 100.354 147.999C100.354 174.313 121.686 195.644 148 195.644Z" stroke="#373737" stroke-width="2" stroke-miterlimit="10" stroke-linecap="round" stroke-linejoin="round"/>
<path d="M160.841 42.8665C160.841 35.7751 155.093 30.0249 148 30.0249C140.906 30.0249 135.158 35.7732 135.158 42.8665C135.158 49.9579 140.906 55.708 148 55.708C155.093 55.708 160.841 49.9579 160.841 42.8665Z" stroke="#373737" stroke-width="2" stroke-miterlimit="10" stroke-linecap="round" stroke-linejoin="round"/>
<path d="M148 265.972C155.092 265.972 160.841 260.223 160.841 253.131C160.841 246.038 155.092 240.289 148 240.289C140.908 240.289 135.158 246.038 135.158 253.131C135.158 260.223 140.908 265.972 148 265.972Z" stroke="#373737" stroke-width="2" stroke-miterlimit="10" stroke-linecap="round" stroke-linejoin="round"/>
<path d="M253.131 160.841C260.223 160.841 265.973 155.093 265.973 148C265.973 140.908 260.225 135.158 253.131 135.158C246.04 135.158 240.29 140.908 240.29 148C240.29 155.093 246.038 160.841 253.131 160.841Z" stroke="#373737" stroke-width="2" stroke-miterlimit="10" stroke-linecap="round" stroke-linejoin="round"/>
<path d="M30.0259 148L30.0259 148C30.0279 155.093 35.7758 160.841 42.8675 160.841C49.9589 160.841 55.709 155.093 55.709 148C55.709 140.908 49.9609 135.158 42.8675 135.158C35.776 135.158 30.0259 140.908 30.0259 148Z" stroke="#373737" stroke-width="2" stroke-miterlimit="10" stroke-linecap="round" stroke-linejoin="round"/>
<path d="M62.3098 61.3091C61.7575 61.3091 61.3098 61.7568 61.3098 62.3091V233.69C61.3098 234.242 61.7575 234.69 62.3098 234.69H233.691C234.243 234.69 234.691 234.242 234.691 233.69V62.3091C234.691 61.7568 234.243 61.3091 233.691 61.3091H62.3098Z" stroke="#373737" stroke-width="2" stroke-miterlimit="10" stroke-linecap="round" stroke-linejoin="round"/>
<path d="M148 101.354V194.646" stroke="#373737" stroke-width="2" stroke-miterlimit="10" stroke-linecap="round" stroke-linejoin="round"/>
<path d="M169.643 148H126.356" stroke="#373737" stroke-width="2" stroke-miterlimit="10" stroke-linecap="round" stroke-linejoin="round"/>
<path d="M159.786 125.892H136.213" stroke="#373737" stroke-width="2" stroke-miterlimit="10" stroke-linecap="round" stroke-linejoin="round"/>
<path d="M159.786 170.109H136.213" stroke="#373737" stroke-width="2" stroke-miterlimit="10" stroke-linecap="round" stroke-linejoin="round"/>
</svg>
